<svg xmlns="http://www.w3.org/2000/svg" viewBox="0 0 1500 1000" role="img" aria-labelledby="title desc">
  <title id="title">Commercial brand production service visual</title>
  <desc id="desc">Premium studio production environment with lighting, camera, backdrop, monitor, and product table.</desc>
  <defs>
    <linearGradient id="bg" x1="0" x2="1" y1="0" y2="1">
      <stop offset="0" stop-color="#302a24"/>
      <stop offset=".48" stop-color="#111110"/>
      <stop offset="1" stop-color="#050505"/>
    </linearGradient>
    <radialGradient id="key" cx=".7" cy=".24" r=".56">
      <stop offset="0" stop-color="#f4dfad" stop-opacity=".86"/>
      <stop offset=".32" stop-color="#b8985f" stop-opacity=".34"/>
      <stop offset="1" stop-color="#060606" stop-opacity="0"/>
    </radialGradient>
    <linearGradient id="paper" x1="0" x2="0" y1="0" y2="1">
      <stop offset="0" stop-color="#d7d0bf"/>
      <stop offset=".52" stop-color="#9b9282"/>
      <stop offset="1" stop-color="#25221d"/>
    </linearGradient>
    <filter id="grain">
      <feTurbulence type="fractalNoise" baseFrequency=".78" numOctaves="3"/>
      <feColorMatrix type="saturate" values="0"/>
      <feComponentTransfer>
        <feFuncA type="table" tableValues="0 .12"/>
      </feComponentTransfer>
    </filter>
  </defs>
  <rect width="1500" height="1000" fill="url(#bg)"/>
  <rect width="1500" height="1000" fill="url(#key)"/>
  <path d="M0 742h1500v258H0z" fill="#0a0a09"/>
  <path d="M228 112h550c72 0 130 58 130 130v568H300c-48 0-86-38-86-86V126c0-8 6-14 14-14z" fill="url(#paper)" opacity=".72"/>
  <path d="M214 742c96-54 201-82 314-82h380v150H300c-48 0-86-38-86-86z" fill="#f0ebe2" opacity=".16"/>
  <g stroke="#f0ebe2" stroke-linecap="round" stroke-opacity=".48">
    <path d="M1044 242 930 774" stroke-width="7"/>
    <path d="M1190 248 1298 774" stroke-width="7"/>
    <path d="M1018 774h204M1256 774h114" stroke-width="7"/>
    <rect x="988" y="168" width="248" height="108" rx="12" fill="#141414" stroke-width="5"/>
  </g>
  <path d="M986 172h250v100H986z" fill="#f0ebe2" opacity=".12"/>
  <path d="M1010 196h202v52h-202z" fill="#b8985f" opacity=".18"/>
  <g>
    <rect x="930" y="600" width="330" height="122" rx="10" fill="#151412" stroke="#f0ebe2" stroke-opacity=".16"/>
    <rect x="968" y="626" width="118" height="68" rx="4" fill="#1f1d1a"/>
    <circle cx="1030" cy="660" r="24" fill="#b8985f" opacity=".38"/>
    <rect x="1118" y="626" width="104" height="68" rx="4" fill="#d8cdb8" opacity=".28"/>
  </g>
  <g stroke="#f0ebe2" stroke-opacity=".3" stroke-linecap="round">
    <path d="M420 330v450M352 780h136M420 330l-74-116M420 330l86-120" stroke-width="6"/>
    <circle cx="420" cy="302" r="56" fill="#111" stroke-width="5"/>
    <circle cx="420" cy="302" r="28" fill="#b8985f" fill-opacity=".28" stroke-width="3"/>
  </g>
  <g opacity=".8">
    <path d="M596 780h264l70 220H520z" fill="#181512"/>
    <path d="M636 730h178l46 50H596z" fill="#28231d"/>
    <rect x="652" y="652" width="144" height="78" rx="8" fill="#090909" stroke="#f0ebe2" stroke-opacity=".16"/>
    <circle cx="724" cy="691" r="34" fill="#0f0f0e" stroke="#b8985f" stroke-opacity=".52" stroke-width="8"/>
  </g>
  <g opacity=".56" stroke="#f0ebe2" stroke-opacity=".14">
    <path d="M0 842h1500M120 1000 522 742M690 1000 748 742M1220 1000 958 742"/>
  </g>
  <rect width="1500" height="1000" filter="url(#grain)" opacity=".48"/>
  <rect width="1500" height="1000" fill="none" stroke="#f0ebe2" stroke-opacity=".08"/>
</svg>
