<svg xmlns="http://www.w3.org/2000/svg" width="1200" height="760" viewBox="0 0 1200 760" role="img" aria-labelledby="title desc">
  <title id="title">Construction progress report dashboard graphic</title>
  <desc id="desc">Abstract construction report dashboard showing progress phases, milestone cards, and visual reporting metrics.</desc>
  <defs>
    <linearGradient id="bg" x1="0" x2="1" y1="0" y2="1">
      <stop offset="0" stop-color="#101615"/>
      <stop offset="1" stop-color="#050607"/>
    </linearGradient>
  </defs>
  <rect width="1200" height="760" fill="url(#bg)"/>
  <rect x="54" y="54" width="1092" height="652" fill="#0d1010" stroke="#7fd7d7" stroke-opacity=".24"/>
  <text x="86" y="108" font-family="JetBrains Mono, monospace" font-size="18" letter-spacing="4" fill="#7fd7d7">CONSTRUCTION PROGRESS REPORT</text>
  <text x="86" y="146" font-family="Inter Tight, sans-serif" font-size="36" fill="#f0ebe2">Milestone visual dashboard</text>
  <g transform="translate(86 198)">
    <rect width="310" height="164" fill="#111615" stroke="#f0ebe2" stroke-opacity=".12"/>
    <text x="24" y="42" font-family="JetBrains Mono, monospace" font-size="14" letter-spacing="3" fill="#9a968c">SITE COVERAGE</text>
    <text x="24" y="100" font-family="Inter Tight, sans-serif" font-size="54" fill="#7fd7d7">82%</text>
    <rect x="24" y="126" width="238" height="8" fill="#202725"/>
    <rect x="24" y="126" width="196" height="8" fill="#7fd7d7"/>
  </g>
  <g transform="translate(445 198)">
    <rect width="310" height="164" fill="#111615" stroke="#f0ebe2" stroke-opacity=".12"/>
    <text x="24" y="42" font-family="JetBrains Mono, monospace" font-size="14" letter-spacing="3" fill="#9a968c">PHASE STATUS</text>
    <text x="24" y="100" font-family="Inter Tight, sans-serif" font-size="54" fill="#b8985f">04</text>
    <text x="104" y="98" font-family="Inter Tight, sans-serif" font-size="24" fill="#f0ebe2">active milestones</text>
  </g>
  <g transform="translate(804 198)">
    <rect width="310" height="164" fill="#111615" stroke="#f0ebe2" stroke-opacity=".12"/>
    <text x="24" y="42" font-family="JetBrains Mono, monospace" font-size="14" letter-spacing="3" fill="#9a968c">REPORT READY</text>
    <text x="24" y="100" font-family="Inter Tight, sans-serif" font-size="54" fill="#92d48f">PDF</text>
    <text x="24" y="132" font-family="JetBrains Mono, monospace" font-size="13" letter-spacing="2" fill="#9a968c">OWNER / CONTRACTOR / LENDER</text>
  </g>
  <g transform="translate(86 430)" font-family="Inter Tight, sans-serif">
    <path d="M0 0H1028" stroke="#f0ebe2" stroke-opacity=".12"/>
    <g fill="none" stroke-width="3">
      <path d="M20 168 C180 80 292 132 424 82 S688 16 1000 96" stroke="#7fd7d7"/>
      <path d="M20 198 C202 136 340 184 512 126 S780 88 1000 152" stroke="#b8985f"/>
    </g>
    <g fill="#7fd7d7"><circle cx="20" cy="168" r="6"/><circle cx="424" cy="82" r="6"/><circle cx="1000" cy="96" r="6"/></g>
    <g fill="#b8985f"><circle cx="20" cy="198" r="6"/><circle cx="512" cy="126" r="6"/><circle cx="1000" cy="152" r="6"/></g>
    <g font-family="JetBrains Mono, monospace" font-size="14" letter-spacing="3" fill="#9a968c">
      <text x="0" y="252">WEEK 01</text><text x="314" y="252">WEEK 04</text><text x="666" y="252">WEEK 08</text><text x="930" y="252">WEEK 12</text>
    </g>
  </g>
</svg>
