<svg xmlns="http://www.w3.org/2000/svg" width="1600" height="1000" viewBox="0 0 1600 1000" role="img" aria-labelledby="title desc">
  <title id="title">Drone flight interface graphic</title>
  <desc id="desc">Abstract technological drone flight interface with radar, route pins, telemetry, and mapping grid.</desc>
  <defs>
    <radialGradient id="glow" cx="68%" cy="22%" r="70%">
      <stop offset="0" stop-color="#7fd7d7" stop-opacity=".26"/>
      <stop offset=".42" stop-color="#0d1010" stop-opacity=".78"/>
      <stop offset="1" stop-color="#050607"/>
    </radialGradient>
    <linearGradient id="gold" x1="0" x2="1" y1="0" y2="1">
      <stop offset="0" stop-color="#f0d89c"/>
      <stop offset="1" stop-color="#b8985f"/>
    </linearGradient>
    <pattern id="grid" width="64" height="64" patternUnits="userSpaceOnUse">
      <path d="M64 0H0V64" fill="none" stroke="#7fd7d7" stroke-opacity=".13" stroke-width="1"/>
    </pattern>
    <filter id="soft">
      <feGaussianBlur stdDeviation="10"/>
    </filter>
  </defs>
  <rect width="1600" height="1000" fill="url(#glow)"/>
  <rect width="1600" height="1000" fill="url(#grid)"/>
  <rect x="82" y="76" width="1436" height="848" fill="none" stroke="#7fd7d7" stroke-opacity=".24"/>
  <rect x="140" y="130" width="1320" height="740" fill="none" stroke="#f0ebe2" stroke-opacity=".08"/>
  <circle cx="810" cy="470" r="322" fill="none" stroke="#7fd7d7" stroke-opacity=".45"/>
  <circle cx="810" cy="470" r="240" fill="none" stroke="#7fd7d7" stroke-opacity=".22"/>
  <circle cx="810" cy="470" r="156" fill="none" stroke="#7fd7d7" stroke-opacity=".2"/>
  <path d="M810 470 L596 231 A322 322 0 0 1 1075 310 Z" fill="#7fd7d7" opacity=".16"/>
  <path d="M246 625 434 310 672 386 914 184 1310 594 1118 808 704 720 312 846Z" fill="none" stroke="#92d48f" stroke-opacity=".58" stroke-width="3" stroke-dasharray="12 16"/>
  <g fill="#92d48f">
    <circle cx="246" cy="625" r="8"/><circle cx="434" cy="310" r="8"/><circle cx="914" cy="184" r="8"/><circle cx="1310" cy="594" r="8"/><circle cx="1118" cy="808" r="8"/>
  </g>
  <g transform="translate(810 470)">
    <circle r="94" fill="#050607" opacity=".62"/>
    <rect x="-36" y="-36" width="72" height="72" transform="rotate(45)" fill="#111615" stroke="url(#gold)" stroke-width="3"/>
    <rect x="-156" y="-4" width="312" height="8" fill="#f0ebe2" fill-opacity=".16" stroke="#f0ebe2" stroke-opacity=".56"/>
    <rect x="-156" y="-4" width="312" height="8" transform="rotate(90)" fill="#f0ebe2" fill-opacity=".16" stroke="#f0ebe2" stroke-opacity=".56"/>
    <g fill="#111615" stroke="#7fd7d7" stroke-width="3">
      <circle cx="-156" cy="-156" r="42"/><circle cx="156" cy="-156" r="42"/><circle cx="-156" cy="156" r="42"/><circle cx="156" cy="156" r="42"/>
    </g>
    <g stroke="#7fd7d7" stroke-opacity=".4">
      <path d="M-184-156h56M-156-184v56M128-156h56M156-184v56M-184 156h56M-156 128v56M128 156h56M156 128v56"/>
    </g>
  </g>
  <g transform="translate(118 794)">
    <rect width="1364" height="92" fill="#050607" fill-opacity=".78" stroke="#f0ebe2" stroke-opacity=".12"/>
    <g font-family="JetBrains Mono, monospace" font-size="20" letter-spacing="3" fill="#9a968c">
      <text x="32" y="36">CEILING CHECK</text><text x="500" y="36">SITE COVERAGE</text><text x="952" y="36">GRID CAPTURE</text>
    </g>
    <g font-family="Inter Tight, sans-serif" font-size="34" fill="#7fd7d7">
      <text x="32" y="74">400 FT</text><text x="500" y="74">82%</text><text x="952" y="74">GPS LOCK</text>
    </g>
  </g>
  <circle cx="1242" cy="214" r="90" fill="#7fd7d7" opacity=".18" filter="url(#soft)"/>
  <text x="118" y="138" font-family="JetBrains Mono, monospace" font-size="18" letter-spacing="4" fill="#7fd7d7">FAA PART 107 / AERIAL SYSTEMS</text>
</svg>
