<svg xmlns="http://www.w3.org/2000/svg" width="1000" height="520" viewBox="0 0 1000 520">
<rect width="1000" height="520" fill="#101010"/><text x="40" y="45" fill="#f4efe7" font-family="Arial" font-size="24">Public service coverage in the local comparison</text><text x="40" y="75" fill="#b9ad9b" font-family="Arial" font-size="14">Presence on public service pages; this is not organic traffic.</text>
<g font-family="Arial" font-size="13" fill="#f4efe7"><text x="40" y="125">Jordan Licon</text><text x="40" y="190">Brian Wancho</text><text x="40" y="255">Gina Ciaccio</text><text x="40" y="320">Light Haus</text><text x="40" y="385">Edin Studios</text></g>
<g font-family="Arial" font-size="12" fill="#b9ad9b"><text x="230" y="105">Headshots</text><text x="340" y="105">Teams</text><text x="440" y="105">Architecture</text><text x="580" y="105">Commercial</text><text x="710" y="105">Food</text><text x="800" y="105">Drone</text></g>
<g fill="#b08b4f"><rect x="230" y="115" width="24" height="24"/><rect x="340" y="115" width="24" height="24"/><rect x="440" y="115" width="24" height="24"/><rect x="580" y="115" width="24" height="24"/><rect x="710" y="115" width="24" height="24"/><rect x="800" y="115" width="24" height="24"/><rect x="230" y="180" width="24" height="24"/><rect x="440" y="180" width="24" height="24"/><rect x="580" y="180" width="24" height="24"/><rect x="230" y="245" width="24" height="24"/><rect x="340" y="245" width="24" height="24"/><rect x="580" y="245" width="24" height="24"/><rect x="230" y="310" width="24" height="24"/><rect x="340" y="310" width="24" height="24"/><rect x="580" y="310" width="24" height="24"/><rect x="230" y="375" width="24" height="24"/><rect x="340" y="375" width="24" height="24"/><rect x="580" y="375" width="24" height="24"/></g>
<text x="40" y="470" fill="#b08b4f" font-family="Arial" font-size="13">Gold = public evidence found</text><text x="220" y="470" fill="#b9ad9b" font-family="Arial" font-size="13">Gray = not found on the reviewed public page</text>
</svg>
